<svg width="800" height="800" viewBox="0 0 800 800" fill="none" xmlns="http://www.w3.org/2000/svg">
<g clip-path="url(#clip0_2_45)">
<path d="M350 550C350 536.739 355.268 524.021 364.645 514.645C374.021 505.268 386.739 500 400 500H400.35C413.611 500 426.329 505.268 435.705 514.645C445.082 524.021 450.35 536.739 450.35 550C450.35 563.261 445.082 575.979 435.705 585.355C426.329 594.732 413.611 600 400.35 600H400C386.739 600 374.021 594.732 364.645 585.355C355.268 575.979 350 563.261 350 550ZM437.5 287.5C437.5 277.554 433.549 268.016 426.516 260.983C419.484 253.951 409.946 250 400 250C390.054 250 380.516 253.951 373.483 260.983C366.451 268.016 362.5 277.554 362.5 287.5V412.5C362.5 422.446 366.451 431.984 373.483 439.016C380.516 446.049 390.054 450 400 450C409.946 450 419.484 446.049 426.516 439.016C433.549 431.984 437.5 422.446 437.5 412.5V287.5Z" fill="currentColor"/>
<path fill-rule="evenodd" clip-rule="evenodd" d="M347.65 63.65C371.813 50.1294 400.272 46.4876 427.062 53.4878C453.851 60.4881 476.89 77.5869 491.35 101.2L491.45 101.4L785.65 590.1C799.802 614.458 803.707 643.437 796.507 670.671C789.307 697.906 771.59 721.169 747.25 735.35C731.15 744.75 712.9 749.8 694.25 750H105.75C87.1236 749.788 68.8743 744.723 52.8023 735.306C36.7303 725.889 23.3909 712.445 14.1 696.3C4.82947 680.128 -0.0230898 661.801 0.0295683 643.16C0.0822265 624.519 5.03825 606.22 14.4 590.1L14.7 589.6L308.6 101.4L308.7 101.2C318.25 85.55 331.7 72.65 347.7 63.7L347.65 63.65ZM372.75 140.15L372.7 140.25L79.1 627.95C74.9909 635.141 73.8992 643.667 76.0641 651.661C78.2289 659.655 83.4739 666.465 90.65 670.6C95.4192 673.389 100.826 674.905 106.35 675H693.65C699.177 674.896 704.584 673.37 709.348 670.567C714.113 667.764 718.074 663.78 720.85 659C723.542 654.278 724.957 648.936 724.957 643.5C724.957 638.064 723.542 632.722 720.85 628L427.35 140.25L427.25 140.2C424.401 135.535 420.395 131.685 415.621 129.022C410.847 126.359 405.466 124.973 400 125C394.541 125.012 389.175 126.413 384.407 129.073C379.64 131.732 375.628 135.511 372.75 140.15Z" fill="currentColor"/>
</g>
<defs>
<clipPath id="clip0_2_45">
<rect width="800" height="800" fill="currentColor"/>
</clipPath>
</defs>
</svg>
