<svg width="800" height="800" viewBox="0 0 800 800" fill="none" xmlns="http://www.w3.org/2000/svg">
<g clip-path="url(#clip0_23_2)">
<path d="M412.25 234.75C408.604 238.065 405.646 242.065 403.547 246.523C401.448 250.982 400.248 255.81 400.016 260.732C399.784 265.654 400.524 270.574 402.194 275.21C403.864 279.846 406.432 284.107 409.75 287.75L477.75 362.5H237.5C227.554 362.5 218.016 366.451 210.984 373.484C203.951 380.516 200 390.054 200 400C200 409.946 203.951 419.484 210.984 426.517C218.016 433.549 227.554 437.5 237.5 437.5H477.75L409.75 512.25C403.053 519.61 399.555 529.328 400.023 539.268C400.492 549.207 404.89 558.553 412.25 565.25C419.61 571.947 429.328 575.446 439.268 574.977C449.207 574.508 458.553 570.11 465.25 562.75L590.2 425.25C596.476 418.394 599.97 409.445 600 400.15V399.95C600 390.2 596.25 381.35 590.15 374.7L465.25 237.3C461.935 233.654 457.935 230.696 453.477 228.597C449.018 226.498 444.19 225.298 439.268 225.066C434.346 224.834 429.426 225.574 424.79 227.244C420.154 228.914 415.893 231.432 412.25 234.75Z" fill="currentColor"/>
<path fill-rule="evenodd" clip-rule="evenodd" d="M800 400C800 293.913 757.857 192.172 682.843 117.157C607.828 42.1427 506.087 0 400 0C293.913 0 192.172 42.1427 117.157 117.157C42.1427 192.172 0 293.913 0 400C0 506.087 42.1427 607.828 117.157 682.843C192.172 757.857 293.913 800 400 800C506.087 800 607.828 757.857 682.843 682.843C757.857 607.828 800 506.087 800 400ZM400 75C486.195 75 568.86 109.241 629.81 170.19C690.759 231.14 725 313.805 725 400C725 486.195 690.759 568.86 629.81 629.81C568.86 690.759 486.195 725 400 725C313.805 725 231.14 690.759 170.19 629.81C109.241 568.86 75 486.195 75 400C75 313.805 109.241 231.14 170.19 170.19C231.14 109.241 313.805 75 400 75Z" fill="currentColor"/>
</g>
<defs>
<clipPath id="clip0_23_2">
<rect width="800" height="800" fill="currentColor" transform="matrix(-1 0 0 1 800 0)"/>
</clipPath>
</defs>
</svg>
