<svg width="800" height="800" viewBox="0 0 800 800" fill="none" xmlns="http://www.w3.org/2000/svg">
<g clip-path="url(#clip0_2_41)">
<path d="M589 261C596.023 268.031 599.967 277.562 599.967 287.5C599.967 297.438 596.023 306.969 589 314L364 539C356.969 546.022 347.438 549.967 337.5 549.967C327.562 549.967 318.031 546.022 311 539L211 439C204.376 431.891 200.77 422.489 200.941 412.774C201.113 403.059 205.048 393.79 211.919 386.919C218.79 380.048 228.059 376.113 237.774 375.941C247.489 375.77 256.891 379.376 264 386L337.5 459.5L536 261C543.031 253.977 552.562 250.033 562.5 250.033C572.438 250.033 581.969 253.977 589 261Z" fill="currentColor"/>
<path fill-rule="evenodd" clip-rule="evenodd" d="M0 400C0 293.913 42.1427 192.172 117.157 117.157C192.172 42.1427 293.913 0 400 0C506.087 0 607.828 42.1427 682.843 117.157C757.857 192.172 800 293.913 800 400C800 506.087 757.857 607.828 682.843 682.843C607.828 757.857 506.087 800 400 800C293.913 800 192.172 757.857 117.157 682.843C42.1427 607.828 0 506.087 0 400ZM400 75C313.805 75 231.14 109.241 170.19 170.19C109.241 231.14 75 313.805 75 400C75 486.195 109.241 568.86 170.19 629.81C231.14 690.759 313.805 725 400 725C486.195 725 568.86 690.759 629.81 629.81C690.759 568.86 725 486.195 725 400C725 313.805 690.759 231.14 629.81 170.19C568.86 109.241 486.195 75 400 75Z" fill="currentColor"/>
</g>
<defs>
<clipPath id="clip0_2_41">
<rect width="800" height="800" fill="currentColor"/>
</clipPath>
</defs>
</svg>
