<svg width="800" height="800" viewBox="0 0 800 800" fill="none" xmlns="http://www.w3.org/2000/svg">
<path fill-rule="evenodd" clip-rule="evenodd" d="M571.8 50.25C579.189 41.4462 588.24 34.1844 598.436 28.8794C608.632 23.5743 619.773 20.33 631.223 19.3317C642.673 18.3334 654.208 19.6008 665.168 23.0613C676.128 26.5218 686.299 32.1078 695.1 39.5L730.2 68.95C747.973 83.8641 759.094 105.226 761.12 128.339C763.145 151.451 755.908 174.422 741 192.2L455.8 532.1C435.127 556.749 409.662 576.94 380.95 591.45L252.35 656.4C245.801 659.705 238.426 661.017 231.138 660.173C223.851 659.328 216.971 656.365 211.351 651.65C205.731 646.934 201.618 640.674 199.52 633.644C197.423 626.615 197.433 619.124 199.55 612.1L241.2 474.15C250.491 443.365 265.936 414.788 286.6 390.15L571.8 50.25ZM646.9 96.95C645.644 95.8864 644.19 95.0813 642.622 94.5809C641.055 94.0805 639.403 93.8947 637.763 94.034C636.124 94.1734 634.527 94.6353 633.066 95.3931C631.605 96.1509 630.308 97.1897 629.25 98.45L602.75 130.1L656.85 175.8L683.55 144C685.677 141.46 686.708 138.179 686.417 134.879C686.127 131.579 684.538 128.529 682 126.4L646.85 96.9L646.9 96.95ZM608.65 233.25L554.55 187.55L344.05 438.35C329.913 455.216 319.35 474.779 313 495.85L296.65 550L347.15 524.5C366.79 514.574 384.209 500.762 398.35 483.9L608.65 233.25Z" fill="currentColor"/>
<path d="M162.5 175C152.554 175 143.016 178.951 135.983 185.983C128.951 193.016 125 202.554 125 212.5V687.5C125 708.2 141.8 725 162.5 725H637.5C647.446 725 656.984 721.049 664.016 714.016C671.049 706.984 675 697.446 675 687.5V450C675 440.054 678.951 430.516 685.984 423.484C693.016 416.451 702.554 412.5 712.5 412.5C722.446 412.5 731.984 416.451 739.016 423.484C746.049 430.516 750 440.054 750 450V687.5C750 717.337 738.147 745.952 717.049 767.049C695.952 788.147 667.337 800 637.5 800H162.5C132.663 800 104.048 788.147 82.9505 767.049C61.8526 745.952 50 717.337 50 687.5V212.5C50 182.663 61.8526 154.048 82.9505 132.95C104.048 111.853 132.663 100 162.5 100H300C309.946 100 319.484 103.951 326.517 110.983C333.549 118.016 337.5 127.554 337.5 137.5C337.5 147.446 333.549 156.984 326.517 164.017C319.484 171.049 309.946 175 300 175H162.5Z" fill="currentColor"/>
</svg>
