<svg width="800" height="800" viewBox="0 0 800 800" fill="none" xmlns="http://www.w3.org/2000/svg">
<path d="M564 236C571.023 243.031 574.967 252.562 574.967 262.5C574.967 272.437 571.023 281.969 564 289L453 400L564 511C567.684 514.433 570.639 518.573 572.689 523.173C574.739 527.773 575.841 532.739 575.93 537.774C576.018 542.809 575.092 547.81 573.206 552.48C571.32 557.149 568.513 561.391 564.952 564.952C561.391 568.513 557.149 571.32 552.48 573.206C547.81 575.092 542.809 576.018 537.774 575.93C532.739 575.841 527.773 574.739 523.173 572.689C518.573 570.639 514.433 567.684 511 564L400 453L289 564C281.891 570.624 272.489 574.23 262.774 574.059C253.059 573.887 243.79 569.952 236.919 563.081C230.048 556.21 226.113 546.941 225.941 537.226C225.77 527.511 229.376 518.109 236 511L347 400L236 289C229.376 281.891 225.77 272.489 225.941 262.774C226.113 253.059 230.048 243.79 236.919 236.919C243.79 230.048 253.059 226.113 262.774 225.941C272.489 225.77 281.891 229.376 289 236L400 347L511 236C518.031 228.977 527.562 225.033 537.5 225.033C547.438 225.033 556.969 228.977 564 236Z" fill="currentColor"/>
<path fill-rule="evenodd" clip-rule="evenodd" d="M12.5 400C12.5 297.229 53.3258 198.666 125.996 125.996C198.666 53.3258 297.229 12.5 400 12.5C502.771 12.5 601.334 53.3258 674.004 125.996C746.674 198.666 787.5 297.229 787.5 400C787.5 502.771 746.674 601.334 674.004 674.004C601.334 746.674 502.771 787.5 400 787.5C297.229 787.5 198.666 746.674 125.996 674.004C53.3258 601.334 12.5 502.771 12.5 400ZM400 87.5C317.12 87.5 237.634 120.424 179.029 179.029C120.424 237.634 87.5 317.12 87.5 400C87.5 482.88 120.424 562.366 179.029 620.971C237.634 679.576 317.12 712.5 400 712.5C482.88 712.5 562.366 679.576 620.971 620.971C679.576 562.366 712.5 482.88 712.5 400C712.5 317.12 679.576 237.634 620.971 179.029C562.366 120.424 482.88 87.5 400 87.5Z" fill="currentColor"/>
</svg>
