<svg width="800" height="800" viewBox="0 0 800 800" fill="none" xmlns="http://www.w3.org/2000/svg">
<path d="M50 187.5C50 177.554 53.9509 168.016 60.9835 160.983C68.0161 153.951 77.5544 150 87.5 150H712.5C722.446 150 731.984 153.951 739.016 160.983C746.049 168.016 750 177.554 750 187.5C750 197.446 746.049 206.984 739.016 214.017C731.984 221.049 722.446 225 712.5 225H87.5C77.5544 225 68.0161 221.049 60.9835 214.017C53.9509 206.984 50 197.446 50 187.5ZM50 387.5C50 377.554 53.9509 368.016 60.9835 360.983C68.0161 353.951 77.5544 350 87.5 350H712.5C722.446 350 731.984 353.951 739.016 360.983C746.049 368.016 750 377.554 750 387.5C750 397.446 746.049 406.984 739.016 414.016C731.984 421.049 722.446 425 712.5 425H87.5C77.5544 425 68.0161 421.049 60.9835 414.016C53.9509 406.984 50 397.446 50 387.5ZM87.5 550C77.5544 550 68.0161 553.951 60.9835 560.984C53.9509 568.016 50 577.554 50 587.5C50 597.446 53.9509 606.984 60.9835 614.016C68.0161 621.049 77.5544 625 87.5 625H712.5C722.446 625 731.984 621.049 739.016 614.016C746.049 606.984 750 597.446 750 587.5C750 577.554 746.049 568.016 739.016 560.984C731.984 553.951 722.446 550 712.5 550H87.5Z" fill="currentColor"/>
</svg>
