<svg width="800" height="800" viewBox="0 0 800 800" fill="none" xmlns="http://www.w3.org/2000/svg">
<path d="M387.5 200C397.446 200 406.984 203.951 414.016 210.983C421.049 218.016 425 227.554 425 237.5V350H537.5C547.446 350 556.984 353.951 564.016 360.983C571.049 368.016 575 377.554 575 387.5C575 397.446 571.049 406.984 564.016 414.016C556.984 421.049 547.446 425 537.5 425H425V537.5C425 547.446 421.049 556.984 414.016 564.016C406.984 571.049 397.446 575 387.5 575C377.554 575 368.016 571.049 360.983 564.016C353.951 556.984 350 547.446 350 537.5V425H237.5C227.554 425 218.016 421.049 210.983 414.016C203.951 406.984 200 397.446 200 387.5C200 377.554 203.951 368.016 210.983 360.983C218.016 353.951 227.554 350 237.5 350H350V237.5C350 227.554 353.951 218.016 360.983 210.983C368.016 203.951 377.554 200 387.5 200Z" fill="currentColor"/>
<path fill-rule="evenodd" clip-rule="evenodd" d="M0 387.5C0 284.729 40.8258 186.166 113.496 113.496C186.166 40.8258 284.729 0 387.5 0C490.271 0 588.834 40.8258 661.504 113.496C734.174 186.166 775 284.729 775 387.5C775 490.271 734.174 588.834 661.504 661.504C588.834 734.174 490.271 775 387.5 775C284.729 775 186.166 734.174 113.496 661.504C40.8258 588.834 0 490.271 0 387.5ZM387.5 75C304.62 75 225.134 107.924 166.529 166.529C107.924 225.134 75 304.62 75 387.5C75 470.38 107.924 549.866 166.529 608.471C225.134 667.076 304.62 700 387.5 700C470.38 700 549.866 667.076 608.471 608.471C667.076 549.866 700 470.38 700 387.5C700 304.62 667.076 225.134 608.471 166.529C549.866 107.924 470.38 75 387.5 75Z" fill="currentColor"/>
</svg>
