<svg width="800" height="800" viewBox="0 0 800 800" fill="none" xmlns="http://www.w3.org/2000/svg">
<g clip-path="url(#clip0_14_275)">
<path d="M362.4 65.35C358.624 62.0873 355.536 58.1035 353.319 53.6323C351.102 49.161 349.8 44.2922 349.489 39.3112C349.178 34.3302 349.864 29.3372 351.508 24.6249C353.151 19.9125 355.719 15.5757 359.06 11.8684C362.401 8.16118 366.449 5.15816 370.966 3.03536C375.482 0.912565 380.377 -0.287301 385.364 -0.493911C390.35 -0.700522 395.328 0.0902796 400.005 1.83214C404.681 3.57401 408.964 6.2319 412.6 9.65003L537.6 122.15C541.499 125.666 544.617 129.962 546.751 134.76C548.885 139.557 549.988 144.749 549.988 150C549.988 155.251 548.885 160.443 546.751 165.24C544.617 170.038 541.499 174.334 537.6 177.85L412.6 290.35C405.177 296.763 395.537 300.012 385.746 299.401C375.956 298.79 366.795 294.366 360.228 287.079C353.66 279.793 350.21 270.223 350.616 260.421C351.022 250.62 355.252 241.369 362.4 234.65L426.9 176.6C378.029 170.725 328.58 181.037 286.131 205.958C243.682 230.878 210.577 269.031 191.889 314.568C173.201 360.106 169.962 410.515 182.668 458.07C195.374 505.625 223.323 547.701 262.233 577.849C301.143 607.998 348.866 624.555 398.087 624.983C447.308 625.411 495.311 609.686 534.739 580.219C574.167 550.751 602.845 509.167 616.375 461.84C629.906 414.514 627.543 364.056 609.65 318.2C607.857 313.61 606.986 308.712 607.087 303.786C607.187 298.86 608.257 294.002 610.235 289.489C612.212 284.976 615.06 280.897 618.614 277.484C622.169 274.072 626.36 271.393 630.95 269.6C635.54 267.807 640.438 266.936 645.364 267.037C650.29 267.137 655.148 268.207 659.661 270.185C664.174 272.163 668.253 275.01 671.666 278.564C675.078 282.119 677.757 286.31 679.55 290.9C702.872 350.641 706.437 416.284 689.719 478.199C673.002 540.114 636.884 595.043 586.662 634.927C536.441 674.811 474.76 697.551 410.667 699.812C346.575 702.073 283.445 683.736 230.538 647.49C177.63 611.244 137.731 558.997 116.693 498.414C95.6541 437.83 94.5837 372.1 113.639 310.864C132.693 249.628 170.87 196.109 222.569 158.16C274.268 120.21 336.768 99.827 400.9 100L362.4 65.35Z" fill="currentColor"/>
</g>
<defs>
<clipPath id="clip0_14_275">
<rect width="800" height="800" fill="currentColor"/>
</clipPath>
</defs>
</svg>
