<svg width="725" height="725" viewBox="0 0 725 725" fill="none" xmlns="http://www.w3.org/2000/svg">
<path d="M133.888 364.025C131.475 344.425 130.8 326.925 131.363 311.337C131.613 304.437 137.413 299.038 144.3 299.288C151.2 299.538 156.588 305.337 156.338 312.237C155.825 326.662 156.475 342.85 158.7 360.975C159.538 367.825 154.663 374.063 147.813 374.913C140.963 375.75 134.725 370.875 133.888 364.025Z" fill="currentColor"/>
<path d="M566.3 360.975C568.525 342.85 569.175 326.662 568.663 312.237C568.413 305.337 573.8 299.538 580.7 299.288C587.588 299.038 593.388 304.437 593.638 311.337C594.2 326.925 593.525 344.425 591.113 364.025C590.275 370.875 584.038 375.75 577.188 374.913C570.338 374.063 565.463 367.825 566.3 360.975Z" fill="currentColor"/>
<path d="M697.525 348.775C699.188 331.775 699.975 315.862 700 300.962C700.013 294.062 705.625 288.475 712.525 288.488C719.425 288.5 725.013 294.112 725 301.012C724.975 316.65 724.15 333.363 722.4 351.225C721.725 358.088 715.613 363.113 708.738 362.438C701.875 361.762 696.85 355.65 697.525 348.775Z" fill="currentColor"/>
<path d="M2.60002 351.225C0.85002 333.363 0.0250209 316.65 2.09323e-05 301.012C-0.0124791 294.112 5.57502 288.5 12.475 288.488C19.375 288.475 24.9875 294.062 25 300.962C25.025 315.862 25.8125 331.775 27.475 348.775C28.15 355.65 23.125 361.762 16.2625 362.438C9.38752 363.113 3.27502 358.088 2.60002 351.225Z" fill="currentColor"/>
<path d="M636.888 319.475C637.775 291.225 635.688 267.525 631.713 247.688C630.363 240.912 634.75 234.325 641.525 232.975C648.288 231.625 654.875 236.013 656.225 242.775C660.513 264.2 662.838 289.775 661.875 320.263C661.663 327.163 655.888 332.588 649 332.363C642.1 332.15 636.675 326.375 636.888 319.475Z" fill="currentColor"/>
<path d="M63.125 320.263C62.1625 289.775 64.4875 264.2 68.775 242.775C70.125 236.013 76.7125 231.625 83.475 232.975C90.25 234.325 94.6375 240.912 93.2875 247.688C89.3125 267.525 87.225 291.225 88.1125 319.475C88.325 326.375 82.9 332.15 76 332.363C69.1125 332.588 63.3375 327.163 63.125 320.263Z" fill="currentColor"/>
<path d="M139.025 259.075C153.763 206.05 183.663 189.25 183.663 189.25C189.6 185.725 197.275 187.688 200.788 193.625C204.313 199.562 202.35 207.238 196.413 210.75C196.413 210.75 174.55 224.625 163.113 265.775C161.263 272.412 154.363 276.313 147.713 274.463C141.075 272.613 137.175 265.725 139.025 259.075Z" fill="currentColor"/>
<path d="M561.888 265.775C550.45 224.625 528.588 210.75 528.588 210.75C522.65 207.238 520.688 199.562 524.213 193.625C527.725 187.688 535.4 185.725 541.338 189.25C541.338 189.25 571.238 206.05 585.975 259.075C587.825 265.725 583.925 272.613 577.288 274.463C570.638 276.313 563.738 272.412 561.888 265.775Z" fill="currentColor"/>
<path d="M697.175 252.65C693.75 225.237 687.438 202.388 679.6 183.413C676.963 177.038 680 169.713 686.375 167.088C692.75 164.45 700.075 167.488 702.7 173.863C711.275 194.613 718.238 219.575 721.988 249.55C722.838 256.4 717.975 262.65 711.138 263.512C704.288 264.362 698.038 259.5 697.175 252.65Z" fill="currentColor"/>
<path d="M3.01252 249.55C6.76252 219.575 13.725 194.613 22.3 173.863C24.925 167.488 32.25 164.45 38.625 167.088C45 169.713 48.0375 177.038 45.4 183.413C37.5625 202.388 31.25 225.237 27.825 252.65C26.9625 259.5 20.7125 264.362 13.8625 263.512C7.02502 262.65 2.16252 256.4 3.01252 249.55Z" fill="currentColor"/>
<path d="M617.313 203.212C599.075 165.287 574.425 155.488 574.425 155.488C567.95 153.125 564.6 145.95 566.963 139.462C569.338 132.987 576.513 129.637 583 132.012C583 132.012 616.275 143.362 639.838 192.375C642.825 198.6 640.213 206.075 633.988 209.062C627.775 212.05 620.3 209.425 617.313 203.212Z" fill="currentColor"/>
<path d="M85.1625 192.375C108.725 143.362 142 132.012 142 132.012C148.488 129.637 155.663 132.987 158.038 139.462C160.4 145.95 157.05 153.125 150.575 155.488C150.575 155.488 125.925 165.287 107.688 203.212C104.7 209.425 97.225 212.05 91.0125 209.062C84.7875 206.075 82.175 198.6 85.1625 192.375Z" fill="currentColor"/>
<path d="M656.775 142.538C632.088 109.163 605.725 99.2625 605.725 99.2625C599.238 96.925 595.863 89.75 598.2 83.2625C600.538 76.775 607.7 73.4 614.2 75.7375C614.2 75.7375 646.838 87.0875 676.863 127.663C680.975 133.213 679.8 141.038 674.25 145.15C668.713 149.25 660.875 148.075 656.775 142.538Z" fill="currentColor"/>
<path d="M48.1375 127.663C78.1625 87.0875 110.8 75.7375 110.8 75.7375C117.3 73.4 124.463 76.775 126.8 83.2625C129.138 89.75 125.763 96.925 119.275 99.2625C119.275 99.2625 92.9125 109.163 68.225 142.538C64.125 148.075 56.2875 149.25 50.75 145.15C45.2 141.038 44.025 133.213 48.1375 127.663Z" fill="currentColor"/>
<path fill-rule="evenodd" clip-rule="evenodd" d="M380.8 146.6C382.163 145.075 381.863 142.688 380.175 141.55C375.088 138.125 369 135.9 362.45 135.9C355.925 135.9 349.85 138.125 344.763 141.525C343.063 142.662 342.775 145.05 344.138 146.575L360 164.25C361.313 165.712 363.6 165.712 364.913 164.25L380.8 146.6ZM362.463 121.2C373.15 121.2 383.013 124.737 390.95 130.688C392.35 131.725 394.288 131.613 395.45 130.312L401.125 124C402.413 122.575 402.275 120.325 400.763 119.15C390.163 110.912 376.9 105.662 362.463 105.662C348.05 105.662 334.8 110.9 324.213 119.113C322.7 120.275 322.563 122.537 323.838 123.962L329.5 130.275C330.675 131.587 332.6 131.7 334 130.65C341.938 124.725 351.788 121.2 362.463 121.2ZM362.463 90.5375C381.025 90.5375 398.038 97.0375 411.463 107.8C412.838 108.912 414.813 108.787 416 107.475L421.113 101.787C422.375 100.387 422.25 98.15 420.788 96.95C404.85 83.925 384.588 75 362.463 75C340.363 75 320.125 83.8875 304.225 96.8875C302.75 98.0875 302.625 100.312 303.888 101.725L308.988 107.413C310.175 108.725 312.15 108.85 313.525 107.738C326.938 97.0125 343.913 90.5375 362.463 90.5375Z" fill="currentColor"/>
<path fill-rule="evenodd" clip-rule="evenodd" d="M250 38.5375C214.55 44.5 187.5 75.3625 187.5 112.5C187.5 149.638 214.55 180.5 250 186.462V187.5C250 208.212 266.788 225 287.5 225H312.5V312.5C302.55 312.5 293.013 316.45 285.988 323.487C278.95 330.512 275 340.05 275 350V437.5C275 447.45 278.95 456.987 285.988 464.012C293.013 471.05 302.55 475 312.5 475V700H227.1C244.85 690.675 262.838 677.138 273.988 657.812C302.463 608.487 276.075 539.475 276.075 539.475C273.938 534.05 268.338 530.812 262.563 531.688C262.563 531.688 224.825 537.45 193.275 559C176.288 529.062 151.55 508.975 151.55 508.975C146.988 505.337 140.513 505.337 135.95 508.975C135.95 508.975 111.213 529.063 94.225 558.988C62.7 537.438 24.9375 531.688 24.9375 531.688C19.1625 530.812 13.5625 534.05 11.425 539.475C11.425 539.475 -14.9625 608.487 13.5125 657.812C24.6625 677.138 42.65 690.675 60.4 700H53.125C46.225 700 40.625 705.6 40.625 712.5C40.625 719.4 46.225 725 53.125 725H671.875C678.775 725 684.375 719.4 684.375 712.5C684.375 705.6 678.775 700 671.875 700H664.6C682.35 690.675 700.338 677.138 711.488 657.812C739.963 608.487 713.575 539.475 713.575 539.475C711.438 534.05 705.838 530.812 700.063 531.688C700.063 531.688 662.3 537.438 630.775 558.988C613.788 529.063 589.05 508.975 589.05 508.975C584.488 505.337 578.013 505.337 573.45 508.975C573.45 508.975 548.713 529.062 531.725 559C500.163 537.462 462.438 531.688 462.438 531.688C456.663 530.812 451.063 534.05 448.925 539.475C448.925 539.475 422.538 608.487 451.013 657.812C462.163 677.138 480.15 690.675 497.9 700H412.5V475C422.45 475 431.988 471.05 439.013 464.012C446.05 456.987 450 447.45 450 437.5V350C450 340.05 446.05 330.512 439.013 323.487C431.988 316.45 422.45 312.5 412.5 312.5V225H437.5C458.213 225 475 208.212 475 187.5V186.462C510.45 180.5 537.5 149.638 537.5 112.5C537.5 75.3625 510.45 44.5 475 38.5375V37.5C475 16.7875 458.213 0 437.5 0H287.5C266.788 0 250 16.7875 250 37.5V38.5375ZM337.5 475H387.5V700H337.5V475ZM651.275 679.088C635.338 687.175 619.763 691.263 611.8 693C627.813 673.975 646.413 644.925 646.413 612.5C646.413 601.975 644.45 591.8 641.25 582.213C659.4 568.563 681.05 561.65 693.525 558.562C695.963 567.062 699.013 580.263 699.8 595.038C700.675 611.275 698.925 629.575 689.838 645.312C680.75 661.05 665.775 671.725 651.275 679.088ZM213.775 679.088C197.838 687.175 182.263 691.263 174.3 693C190.313 673.975 208.913 644.925 208.913 612.5C208.913 601.975 206.95 591.8 203.75 582.213C221.888 568.538 243.538 561.637 256.025 558.55C258.463 567.062 261.513 580.25 262.3 595.038C263.175 611.275 261.425 629.575 252.338 645.312C243.25 661.05 228.275 671.725 213.775 679.088ZM468.975 558.55C481.463 561.637 503.125 568.538 521.25 582.213C518.05 591.8 516.088 601.975 516.088 612.5C516.088 644.925 534.688 673.975 550.7 693C542.738 691.263 527.163 687.175 511.225 679.088C496.725 671.725 481.75 661.05 472.663 645.312C463.575 629.575 461.825 611.275 462.7 595.038C463.488 580.25 466.538 567.062 468.975 558.55ZM31.475 558.562C43.95 561.65 65.6 568.563 83.75 582.213C80.55 591.8 78.5875 601.975 78.5875 612.5C78.5875 644.925 97.1875 673.975 113.2 693C105.238 691.263 89.6625 687.175 73.725 679.088C59.225 671.725 44.25 661.05 35.1625 645.312C26.075 629.575 24.325 611.275 25.2 595.038C25.9875 580.263 29.0375 567.062 31.475 558.562ZM604.9 563.975C596.838 551.587 587.613 541.7 581.25 535.537C574.888 541.7 565.663 551.587 557.6 563.975C548.725 577.6 541.088 594.325 541.088 612.5C541.088 630.675 548.725 647.4 557.6 661.025C565.663 673.413 574.888 683.3 581.25 689.463C587.613 683.3 596.838 673.413 604.9 661.025C613.775 647.4 621.413 630.675 621.413 612.5C621.413 594.325 613.775 577.6 604.9 563.975ZM167.4 563.975C159.338 551.587 150.113 541.7 143.75 535.537C137.388 541.7 128.163 551.587 120.1 563.975C111.225 577.6 103.588 594.325 103.588 612.5C103.588 630.675 111.225 647.4 120.1 661.025C128.163 673.413 137.388 683.3 143.75 689.463C150.113 683.3 159.338 673.413 167.4 661.025C176.275 647.4 183.913 630.675 183.913 612.5C183.913 594.325 176.275 577.6 167.4 563.975ZM425 437.5V350C425 346.688 423.688 343.5 421.338 341.162C419 338.812 415.813 337.5 412.5 337.5H312.5C309.188 337.5 306 338.812 303.663 341.162C301.313 343.5 300 346.688 300 350V437.5C300 440.812 301.313 444 303.663 446.338C306 448.688 309.188 450 312.5 450H412.5C415.813 450 419 448.688 421.338 446.338C423.688 444 425 440.812 425 437.5ZM387.5 225V312.5H337.5V225H387.5ZM437.5 200C444.4 200 450 194.4 450 187.5V112.5V37.5C450 30.6 444.4 25 437.5 25H287.5C280.6 25 275 30.6 275 37.5V187.5C275 194.4 280.6 200 287.5 200H437.5ZM475 160.925V64.075C496.55 69.6375 512.5 89.225 512.5 112.5C512.5 135.775 496.55 155.362 475 160.925ZM212.5 112.5C212.5 89.225 228.45 69.6375 250 64.075V160.925C228.45 155.362 212.5 135.775 212.5 112.5Z" fill="currentColor"/>
</svg>
