<svg width="800" height="800" viewBox="0 0 800 800" fill="none" xmlns="http://www.w3.org/2000/svg">
<path fill-rule="evenodd" clip-rule="evenodd" d="M400 150C360.218 150 322.064 165.804 293.934 193.934C265.804 222.064 250 260.218 250 300C250 339.782 265.804 377.936 293.934 406.066C322.064 434.197 360.218 450 400 450C439.782 450 477.936 434.197 506.066 406.066C534.197 377.936 550 339.782 550 300C550 260.218 534.197 222.064 506.066 193.934C477.936 165.804 439.782 150 400 150ZM325 300C325 280.109 332.902 261.032 346.967 246.967C361.032 232.902 380.109 225 400 225C419.891 225 438.968 232.902 453.033 246.967C467.098 261.032 475 280.109 475 300C475 319.891 467.098 338.968 453.033 353.033C438.968 367.098 419.891 375 400 375C380.109 375 361.032 367.098 346.967 353.033C332.902 338.968 325 319.891 325 300Z" fill="currentColor"/>
<path fill-rule="evenodd" clip-rule="evenodd" d="M12.5 400C12.5 297.229 53.3258 198.666 125.996 125.996C198.666 53.3258 297.229 12.5 400 12.5C502.771 12.5 601.334 53.3258 674.004 125.996C746.674 198.666 787.5 297.229 787.5 400C787.5 502.771 746.674 601.334 674.004 674.004C601.334 746.674 502.771 787.5 400 787.5C297.229 787.5 198.666 746.674 125.996 674.004C53.3258 601.334 12.5 502.771 12.5 400ZM400 87.5C344.008 87.4984 289.045 102.54 240.857 131.053C192.669 159.566 153.026 200.502 126.075 249.58C99.1236 298.658 85.8536 354.077 87.6523 410.039C89.4511 466.002 106.253 520.454 136.3 567.7C143.8 558 152.55 549.25 162 541.05C192.75 514.3 233.5 500 275 500H525C566.5 500 607.25 514.3 638 541C647.45 549.25 656.25 558 663.7 567.7C693.747 520.454 710.549 466.002 712.348 410.039C714.146 354.077 700.876 298.658 673.925 249.58C646.974 200.502 607.331 159.566 559.143 131.053C510.955 102.54 455.992 87.4984 400 87.5ZM400 712.5C321.452 712.613 245.763 683.037 188.1 629.7C189.85 619.9 195.75 611.1 211.2 597.65C227.35 583.6 250.2 575 275 575H525C549.75 575 572.65 583.6 588.8 597.65C604.3 611.1 610.15 619.9 611.9 629.7C554.237 683.037 478.548 712.613 400 712.5Z" fill="currentColor"/>
</svg>
