<svg width="800" height="800" viewBox="0 0 800 800" fill="none" xmlns="http://www.w3.org/2000/svg">
<path d="M61.0002 61C68.0315 53.9775 77.5627 50.033 87.5002 50.033C97.4377 50.033 106.969 53.9775 114 61L739 686C742.685 689.433 745.64 693.573 747.689 698.173C749.739 702.773 750.841 707.739 750.93 712.774C751.019 717.809 750.092 722.81 748.206 727.48C746.32 732.149 743.513 736.391 739.952 739.952C736.391 743.513 732.15 746.32 727.48 748.206C722.811 750.092 717.809 751.018 712.774 750.93C707.739 750.841 702.773 749.739 698.173 747.689C693.573 745.639 689.433 742.684 686 739L508.1 561.15C503.134 560.074 498.439 557.999 494.3 555.05C466.803 535.511 433.907 525.014 400.175 525.014C366.443 525.014 333.547 535.511 306.05 555.05C302.035 557.903 297.497 559.937 292.696 561.036C287.895 562.136 282.924 562.279 278.067 561.457C268.259 559.797 259.512 554.309 253.75 546.2C250.897 542.185 248.863 537.647 247.764 532.846C246.665 528.044 246.522 523.074 247.344 518.217C249.003 508.409 254.491 499.662 262.6 493.9C301.905 465.962 348.782 450.65 397 450L309.9 363C266.55 375.5 225.9 397 190.65 426.3C183.005 432.665 173.145 435.733 163.238 434.828C153.332 433.923 144.19 429.12 137.825 421.475C131.46 413.83 128.392 403.97 129.297 394.063C130.202 384.157 135.005 375.015 142.65 368.65C175.16 341.561 211.722 319.745 251 304L175.65 228.65C138.322 247.602 103.545 271.207 72.1502 298.9C64.6844 305.477 54.9115 308.82 44.9814 308.191C35.0514 307.563 25.7776 303.016 19.2002 295.55C12.6228 288.084 9.28066 278.311 9.90891 268.381C10.5372 258.451 15.0844 249.177 22.5502 242.6C52.8002 215.95 85.5502 192.75 120.25 173.25L61.0002 114C53.9777 106.969 50.0332 97.4376 50.0332 87.5C50.0332 77.5625 53.9777 68.0313 61.0002 61ZM400 175C379 175 358.15 176.35 337.5 179C332.612 179.624 327.648 179.279 322.893 177.984C318.138 176.69 313.685 174.471 309.787 171.456C305.889 168.44 302.624 164.686 300.177 160.409C297.73 156.131 296.149 151.413 295.525 146.525C294.901 141.637 295.247 136.673 296.541 131.918C297.835 127.163 300.054 122.709 303.069 118.812C306.085 114.914 309.839 111.648 314.116 109.201C318.394 106.754 323.112 105.174 328 104.55C408.431 94.3225 490.118 101.344 567.623 125.148C645.129 148.951 716.675 188.99 777.5 242.6C784.966 249.184 789.511 258.464 790.134 268.399C790.758 278.334 787.409 288.109 780.825 295.575C774.241 303.041 764.961 307.585 755.026 308.209C745.092 308.833 735.316 305.484 727.85 298.9C637.293 219.067 520.722 175.013 400 175ZM489.7 321.35C493.056 311.988 499.992 304.343 508.985 300.095C517.977 295.847 528.288 295.346 537.65 298.7C582.212 314.656 623.625 338.315 660 368.6C663.786 371.752 666.913 375.618 669.204 379.979C671.495 384.339 672.905 389.108 673.353 394.013C673.801 398.918 673.279 403.864 671.815 408.567C670.352 413.271 667.977 417.64 664.825 421.425C661.674 425.21 657.807 428.338 653.447 430.629C649.086 432.92 644.317 434.33 639.412 434.778C634.507 435.226 629.561 434.703 624.858 433.24C620.155 431.777 615.786 429.402 612 426.25C582.379 401.559 548.649 382.266 512.35 369.25C503 365.894 495.364 358.966 491.117 349.985C486.871 341.005 486.361 330.706 489.7 321.35Z" fill="currentColor"/>
<path d="M400 600C386.739 600 374.021 605.268 364.645 614.645C355.268 624.021 350 636.739 350 650C350 663.261 355.268 675.979 364.645 685.355C374.021 694.732 386.739 700 400 700H400.35C413.611 700 426.329 694.732 435.705 685.355C445.082 675.979 450.35 663.261 450.35 650C450.35 636.739 445.082 624.021 435.705 614.645C426.329 605.268 413.611 600 400.35 600H400Z" fill="currentColor"/>
</svg>
