<svg width="800" height="800" viewBox="0 0 800 800" fill="none" xmlns="http://www.w3.org/2000/svg">
<path d="M72.1501 298.9C162.714 219.084 279.284 175.047 400 175.047C520.716 175.047 637.286 219.084 727.85 298.9C735.316 305.477 745.089 308.82 755.019 308.191C764.949 307.563 774.223 303.016 780.8 295.55C787.378 288.084 790.72 278.311 790.091 268.381C789.463 258.451 784.916 249.177 777.45 242.6C673.187 150.705 538.98 100.004 400 100.004C261.02 100.004 126.814 150.705 22.5502 242.6C18.8534 245.857 15.8344 249.81 13.6654 254.233C11.4964 258.657 10.2199 263.464 9.90885 268.381C9.59777 273.298 10.2582 278.228 11.8524 282.89C13.4466 287.551 15.9434 291.853 19.2001 295.55C22.4569 299.247 26.4099 302.266 30.8335 304.435C35.257 306.604 40.0645 307.88 44.9813 308.191C49.8982 308.502 54.8282 307.842 59.4898 306.248C64.1515 304.654 68.4534 302.157 72.1501 298.9Z" fill="currentColor"/>
<path d="M190.65 426.25C249.797 376.977 324.344 349.995 401.325 349.995C478.307 349.995 552.853 376.977 612 426.25C619.645 432.615 629.505 435.683 639.412 434.778C649.318 433.873 658.46 429.07 664.825 421.425C671.19 413.78 674.258 403.92 673.353 394.013C672.448 384.107 667.645 374.965 660 368.6C587.377 308.102 495.846 274.973 401.325 274.973C306.804 274.973 215.274 308.102 142.65 368.6C135.005 374.965 130.202 384.107 129.297 394.013C128.392 403.92 131.46 413.78 137.825 421.425C144.19 429.07 153.332 433.873 163.238 434.778C173.145 435.683 183.005 432.615 190.65 426.25Z" fill="currentColor"/>
<path d="M400.15 525C366.431 524.995 333.545 535.479 306.05 555C297.938 560.454 288.017 562.524 278.401 560.77C268.784 559.017 260.233 553.577 254.568 545.611C248.903 537.645 246.573 527.782 248.073 518.123C249.573 508.464 254.786 499.772 262.6 493.9C302.785 465.351 350.857 450.014 400.15 450.014C449.444 450.014 497.515 465.351 537.7 493.9C541.821 496.706 545.341 500.306 548.055 504.489C550.768 508.672 552.62 513.354 553.502 518.261C554.384 523.168 554.279 528.202 553.192 533.068C552.106 537.934 550.06 542.534 547.174 546.6C544.289 550.666 540.621 554.116 536.386 556.747C532.152 559.379 527.435 561.139 522.511 561.926C517.588 562.713 512.557 562.51 507.713 561.329C502.869 560.149 498.309 558.014 494.3 555.05C466.798 535.501 433.892 524.999 400.15 525ZM400 600C386.739 600 374.022 605.268 364.645 614.645C355.268 624.022 350 636.739 350 650C350 663.261 355.268 675.979 364.645 685.355C374.022 694.732 386.739 700 400 700H400.35C413.611 700 426.329 694.732 435.706 685.355C445.082 675.979 450.35 663.261 450.35 650C450.35 636.739 445.082 624.022 435.706 614.645C426.329 605.268 413.611 600 400.35 600H400Z" fill="currentColor"/>
</svg>
